# Blender 4.0.2
# www.blender.org
mtllib hamster_legs.mtl
o Legs
v -0.700000 0.100000 -0.100000
v -0.700000 0.100000 -0.300000
v -0.700000 0.300000 -0.100000
v -0.700000 0.300000 -0.300000
v -0.600000 0.300000 0.200000
v -0.600000 0.300000 -0.100000
v -0.600000 0.300000 -0.200000
v -0.600000 0.400000 0.200000
v -0.600000 0.400000 0.100000
v -0.600000 0.400000 -0.100000
v -0.600000 0.400000 -0.200000
v -0.500000 0.200000 0.300000
v -0.500000 0.200000 0.100000
v -0.500000 0.300000 0.200000
v -0.500000 0.300000 0.100000
v -0.500000 0.400000 0.400000
v -0.500000 0.400000 0.300000
v -0.500000 0.400000 0.200000
v -0.400000 0.300000 -0.200000
v -0.400000 0.300000 -0.300000
v -0.400000 0.400000 -0.200000
v -0.400000 0.400000 -0.300000
v -0.200000 0.100000 0.300000
v -0.200000 0.100000 0.100000
v -0.200000 0.200000 0.300000
v -0.200000 0.200000 0.100000
v -0.200000 0.300000 0.300000
v -0.200000 0.300000 0.100000
v -0.300000 0.100000 -0.100000
v -0.300000 0.100000 -0.300000
v -0.300000 0.200000 0.300000
v -0.300000 0.200000 0.100000
v -0.300000 0.200000 -0.100000
v -0.300000 0.200000 -0.300000
v -0.300000 0.300000 0.300000
v -0.300000 0.300000 0.100000
v -0.200000 0.200000 -0.100000
v -0.200000 0.200000 -0.300000
v -0.200000 0.300000 0.100000
v -0.200000 0.300000 -0.100000
v -0.200000 0.300000 -0.200000
v -0.200000 0.400000 0.100000
v -0.200000 0.400000 -0.100000
v -0.200000 0.400000 -0.200000
v -0.200000 0.400000 -0.300000
v -0.100000 0.400000 0.400000
v -0.100000 0.400000 0.300000
v 0.000000 0.200000 0.300000
v 0.000000 0.200000 0.200000
v 0.000000 0.200000 0.100000
v 0.000000 0.300000 0.300000
v 0.000000 0.300000 0.200000
v 0.000000 0.400000 0.300000
v 0.000000 0.400000 0.100000
v 0.000000 0.500000 0.300000
v 0.000000 0.500000 0.100000
v 0.100000 0.100000 0.300000
v 0.100000 0.100000 0.100000
v 0.100000 0.200000 0.300000
v 0.100000 0.200000 0.100000
v -0.500000 0.400000 0.400000
v -0.400000 0.400000 0.400000
v -0.300000 0.400000 0.400000
v -0.200000 0.400000 0.400000
v -0.100000 0.400000 0.400000
v -0.500000 0.200000 0.300000
v -0.500000 0.400000 0.300000
v -0.400000 0.300000 0.300000
v -0.400000 0.400000 0.300000
v -0.300000 0.200000 0.300000
v -0.300000 0.300000 0.300000
v -0.300000 0.400000 0.300000
v -0.200000 0.100000 0.300000
v -0.200000 0.200000 0.300000
v -0.200000 0.300000 0.300000
v -0.200000 0.400000 0.300000
v -0.100000 0.200000 0.300000
v -0.100000 0.300000 0.300000
v -0.100000 0.400000 0.300000
v 0.000000 0.200000 0.300000
v 0.000000 0.300000 0.300000
v 0.000000 0.400000 0.300000
v 0.000000 0.500000 0.300000
v 0.100000 0.100000 0.300000
v 0.100000 0.200000 0.300000
v -0.600000 0.300000 0.200000
v -0.600000 0.400000 0.200000
v -0.500000 0.300000 0.200000
v -0.500000 0.400000 0.200000
v -0.700000 0.100000 -0.100000
v -0.700000 0.300000 -0.100000
v -0.600000 0.100000 -0.100000
v -0.600000 0.300000 -0.100000
v -0.300000 0.100000 -0.100000
v -0.300000 0.200000 -0.100000
v -0.200000 0.200000 -0.100000
v -0.200000 0.300000 -0.100000
v 0.000000 0.500000 0.300000
v -0.500000 0.200000 0.100000
v -0.500000 0.300000 0.100000
v -0.300000 0.200000 0.100000
v -0.300000 0.300000 0.100000
v -0.200000 0.100000 0.100000
v -0.200000 0.200000 0.100000
v -0.200000 0.300000 0.100000
v -0.200000 0.400000 0.100000
v -0.100000 0.400000 0.100000
v 0.000000 0.200000 0.100000
v 0.000000 0.400000 0.100000
v 0.000000 0.500000 0.100000
v 0.100000 0.100000 0.100000
v 0.100000 0.200000 0.100000
v -0.600000 0.300000 -0.200000
v -0.600000 0.400000 -0.200000
v -0.500000 0.300000 -0.200000
v -0.500000 0.400000 -0.200000
v -0.400000 0.300000 -0.200000
v -0.400000 0.400000 -0.200000
v -0.700000 0.100000 -0.300000
v -0.700000 0.300000 -0.300000
v -0.600000 0.100000 -0.300000
v -0.600000 0.300000 -0.300000
v -0.500000 0.200000 -0.300000
v -0.500000 0.300000 -0.300000
v -0.400000 0.200000 -0.300000
v -0.400000 0.300000 -0.300000
v -0.400000 0.400000 -0.300000
v -0.300000 0.100000 -0.300000
v -0.300000 0.200000 -0.300000
v -0.300000 0.300000 -0.300000
v -0.300000 0.400000 -0.300000
v -0.200000 0.200000 -0.300000
v -0.200000 0.400000 -0.300000
v -0.200000 0.100000 0.300000
v 0.100000 0.100000 0.300000
v -0.200000 0.100000 0.100000
v 0.100000 0.100000 0.100000
v -0.700000 0.100000 -0.100000
v -0.600000 0.100000 -0.100000
v -0.300000 0.100000 -0.100000
v -0.700000 0.100000 -0.300000
v -0.600000 0.100000 -0.300000
v -0.300000 0.100000 -0.300000
v -0.500000 0.200000 0.300000
v -0.300000 0.200000 0.300000
v -0.500000 0.200000 0.100000
v -0.300000 0.200000 0.100000
v -0.300000 0.200000 -0.100000
v -0.200000 0.200000 -0.100000
v -0.300000 0.200000 -0.300000
v -0.200000 0.200000 -0.300000
v -0.300000 0.300000 0.300000
v -0.200000 0.300000 0.300000
v -0.600000 0.300000 0.200000
v -0.500000 0.300000 0.200000
v -0.500000 0.300000 0.100000
v -0.300000 0.300000 0.100000
v -0.200000 0.300000 0.100000
v -0.600000 0.300000 -0.100000
v -0.200000 0.300000 -0.100000
v -0.500000 0.400000 0.300000
v -0.400000 0.400000 0.300000
v -0.300000 0.400000 0.300000
v -0.200000 0.400000 0.300000
v -0.100000 0.400000 0.300000
v 0.000000 0.500000 0.300000
v -0.200000 0.500000 0.100000
v -0.200000 0.500000 -0.100000
v -0.200000 0.500000 -0.300000
v 0.000000 0.200000 0.300000
v 0.100000 0.200000 0.300000
v 0.000000 0.200000 0.200000
v 0.000000 0.200000 0.100000
v 0.100000 0.200000 0.100000
v -0.700000 0.300000 -0.100000
v -0.600000 0.300000 -0.100000
v -0.600000 0.300000 -0.200000
v -0.500000 0.300000 -0.200000
v -0.400000 0.300000 -0.200000
v -0.700000 0.300000 -0.300000
v -0.600000 0.300000 -0.300000
v -0.500000 0.300000 -0.300000
v -0.400000 0.300000 -0.300000
v -0.200000 0.500000 0.300000
v -0.100000 0.500000 0.300000
v 0.000000 0.500000 0.300000
v -0.200000 0.500000 0.200000
v -0.100000 0.500000 0.200000
v -0.100000 0.500000 0.100000
v 0.000000 0.500000 0.100000
vn -1.0000 -0.0000 -0.0000
vn 1.0000 -0.0000 -0.0000
vn -0.0000 -0.0000 1.0000
vn -0.0000 -0.0000 -1.0000
vn -0.0000 -1.0000 -0.0000
vn -0.0000 1.0000 -0.0000
vt 0.826172 0.500000
vt 0.908203 0.500000
vt 0.912109 0.500000
vt 0.916016 0.500000
s 0
usemtl palette
f 3/1/1 2/1/1 1/1/1
f 4/1/1 2/1/1 3/1/1
f 8/2/1 6/2/1 5/2/1
f 8/2/1 7/2/1 6/2/1
f 9/2/1 7/2/1 8/2/1
f 10/2/1 7/2/1 9/2/1
f 11/2/1 7/2/1 10/2/1
f 14/2/1 13/2/1 12/2/1
f 15/2/1 13/2/1 14/2/1
f 17/2/1 14/2/1 12/2/1
f 18/2/1 14/2/1 17/2/1
f 21/3/1 20/3/1 19/3/1
f 22/3/1 20/3/1 21/3/1
f 25/1/1 24/1/1 23/1/1
f 26/1/1 24/1/1 25/1/1
f 27/3/1 26/3/1 25/3/1
f 28/3/1 26/3/1 27/3/1
f 29/2/2 30/2/2 33/2/2
f 33/2/2 30/2/2 34/2/2
f 31/2/2 32/2/2 35/2/2
f 35/2/2 32/2/2 36/2/2
f 37/2/2 38/2/2 40/2/2
f 40/2/2 38/2/2 41/2/2
f 39/2/2 40/2/2 42/2/2
f 40/3/2 41/3/2 43/3/2
f 42/2/2 40/2/2 43/2/2
f 41/2/2 38/2/2 44/2/2
f 43/3/2 41/3/2 44/3/2
f 44/2/2 38/2/2 45/2/2
f 48/2/2 49/2/2 51/2/2
f 49/3/2 50/3/2 52/3/2
f 51/2/2 49/2/2 52/2/2
f 51/3/2 52/3/2 53/3/2
f 52/3/2 50/3/2 54/3/2
f 53/3/2 52/3/2 54/3/2
f 53/4/2 54/4/2 55/4/2
f 55/4/2 54/4/2 56/4/2
f 57/1/2 58/1/2 59/1/2
f 59/1/2 58/1/2 60/1/2
f 68/2/3 67/2/3 66/2/3
f 69/2/3 67/2/3 68/2/3
f 70/2/3 68/2/3 66/2/3
f 71/3/3 69/3/3 68/3/3
f 71/2/3 68/2/3 70/2/3
f 72/3/3 69/3/3 71/3/3
f 75/2/3 72/2/3 71/2/3
f 76/2/3 72/2/3 75/2/3
f 77/1/3 74/1/3 73/1/3
f 77/3/3 76/3/3 75/3/3
f 77/3/3 75/3/3 74/3/3
f 78/3/3 76/3/3 77/3/3
f 79/3/3 76/3/3 78/3/3
f 80/1/3 77/1/3 73/1/3
f 80/2/3 78/2/3 77/2/3
f 81/3/3 79/3/3 78/3/3
f 81/2/3 78/2/3 80/2/3
f 82/3/3 79/3/3 81/3/3
f 84/1/3 80/1/3 73/1/3
f 85/1/3 80/1/3 84/1/3
f 88/2/3 87/2/3 86/2/3
f 89/2/3 87/2/3 88/2/3
f 92/1/3 91/1/3 90/1/3
f 93/1/3 91/1/3 92/1/3
f 94/2/3 93/2/3 92/2/3
f 95/2/3 93/2/3 94/2/3
f 96/2/3 93/2/3 95/2/3
f 97/2/3 93/2/3 96/2/3
f 99/2/4 100/2/4 101/2/4
f 101/2/4 100/2/4 102/2/4
f 104/3/4 105/3/4 107/3/4
f 105/3/4 106/3/4 107/3/4
f 103/1/4 104/1/4 108/1/4
f 104/3/4 107/3/4 108/3/4
f 108/3/4 107/3/4 109/3/4
f 103/1/4 108/1/4 111/1/4
f 111/1/4 108/1/4 112/1/4
f 113/2/4 114/2/4 115/2/4
f 115/2/4 114/2/4 116/2/4
f 115/2/4 116/2/4 117/2/4
f 119/1/4 120/1/4 121/1/4
f 121/1/4 120/1/4 122/1/4
f 121/2/4 122/2/4 123/2/4
f 123/2/4 122/2/4 124/2/4
f 121/2/4 123/2/4 125/2/4
f 123/3/4 124/3/4 125/3/4
f 125/3/4 124/3/4 126/3/4
f 121/2/4 125/2/4 128/2/4
f 125/2/4 126/2/4 128/2/4
f 128/2/4 126/2/4 129/2/4
f 126/3/4 127/3/4 130/3/4
f 129/2/4 126/2/4 130/2/4
f 130/3/4 127/3/4 131/3/4
f 130/2/4 131/2/4 132/2/4
f 129/2/4 130/2/4 132/2/4
f 132/2/4 131/2/4 133/2/4
f 136/1/5 135/1/5 134/1/5
f 137/1/5 135/1/5 136/1/5
f 141/1/5 139/1/5 138/1/5
f 142/2/5 140/2/5 139/2/5
f 142/1/5 139/1/5 141/1/5
f 143/2/5 140/2/5 142/2/5
f 146/2/5 145/2/5 144/2/5
f 147/2/5 145/2/5 146/2/5
f 150/2/5 149/2/5 148/2/5
f 151/2/5 149/2/5 150/2/5
f 156/2/5 155/2/5 154/2/5
f 157/2/5 153/2/5 152/2/5
f 158/2/5 153/2/5 157/2/5
f 159/2/5 156/2/5 154/2/5
f 159/2/5 157/2/5 156/2/5
f 159/2/5 158/2/5 157/2/5
f 160/2/5 158/2/5 159/2/5
f 170/1/6 171/1/6 172/1/6
f 172/1/6 171/1/6 173/1/6
f 173/1/6 171/1/6 174/1/6
f 175/1/6 176/1/6 177/1/6
f 175/1/6 177/1/6 180/1/6
f 177/2/6 178/2/6 181/2/6
f 180/1/6 177/1/6 181/1/6
f 178/3/6 179/3/6 182/3/6
f 181/2/6 178/2/6 182/2/6
f 182/3/6 179/3/6 183/3/6
f 184/3/6 185/3/6 187/3/6
f 185/4/6 186/4/6 188/4/6
f 187/3/6 185/3/6 188/3/6
f 188/4/6 186/4/6 189/4/6
f 189/4/6 186/4/6 190/4/6
l 63 64
l 109 110
l 64 65
l 61 62
l 46 47
l 16 17
l 117 118
l 167 168
l 164 165
l 163 164
l 62 63
l 162 163
l 82 83
l 161 162
